<svg xmlns="http://www.w3.org/2000/svg" width="1000" height="300" viewBox="0 0 1000 300">
<defs>
<linearGradient id="bg" x1="0" y1="0" x2="1" y2="1"><stop offset="0" stop-color="#0b1220"/><stop offset="1" stop-color="#141d38"/></linearGradient>
<linearGradient id="bar" x1="0" y1="1" x2="0" y2="0"><stop offset="0" stop-color="#a78bfa"/><stop offset="1" stop-color="#22d3ee"/></linearGradient>
<pattern id="dots" width="22" height="22" patternUnits="userSpaceOnUse"><circle cx="2" cy="2" r="1" fill="#ffffff" opacity=".07"/></pattern>
</defs>
<style>
  text { font-family:-apple-system,'Segoe UI',Helvetica,Arial,sans-serif; }
  .m { font-family:'SF Mono','JetBrains Mono',Menlo,Consolas,monospace; }
  @media (prefers-reduced-motion: reduce) { * { animation:none !important; } }

  .grow { transform-box:fill-box; transform-origin:bottom; animation:grow 1s cubic-bezier(.2,.8,.2,1) both; }
  @keyframes grow { from { transform:scaleY(0); } to { transform:scaleY(1); } }
  .draw { stroke-dasharray:1; stroke-dashoffset:1; animation:draw 1.8s .9s ease-out forwards; }
  @keyframes draw { to { stroke-dashoffset:0; } }
  .pulse { transform-box:fill-box; transform-origin:center; animation:pulse 2s ease-in-out infinite; }
  @keyframes pulse { 0%,100% { transform:scale(.6); opacity:.5; } 50% { transform:scale(1.3); opacity:.15; } }
  .role { opacity:0; animation:role 9s infinite both; }
  @keyframes role { 0% { opacity:0; transform:translateY(8px); } 6% { opacity:1; transform:none; } 30% { opacity:1; } 35%,100% { opacity:0; } }
</style>
<rect width="1000" height="300" rx="18" fill="url(#bg)"/><rect width="1000" height="300" rx="18" fill="url(#dots)"/><rect x=".5" y=".5" width="999" height="299" rx="18" fill="none" stroke="#2a3658"/>
<text class="m" x="60" y="66" font-size="14" fill="#22d3ee">~/sneha-juyal  $  whoami</text>
<text x="60" y="130" font-size="58" font-weight="700" fill="#e6edf3" letter-spacing="-1">Sneha Juyal</text>
<text class="role" style="animation-delay:0s" x="60" y="182" font-size="23" fill="#c4b5fd">Data  →  analysis  →  decisions</text><text class="role" style="animation-delay:3s" x="60" y="182" font-size="23" fill="#c4b5fd">Models that are evaluated honestly</text><text class="role" style="animation-delay:6s" x="60" y="182" font-size="23" fill="#c4b5fd">Services that ship in containers</text>
<text class="m" x="60" y="218" font-size="13.5" fill="#8b98b5">Python · SQL · Excel · scikit-learn · FastAPI · Docker</text>
<rect x="60" y="244" width="232" height="30" rx="15" fill="#ffffff" fill-opacity=".06" stroke="#2a3658"/>
<text x="76" y="264" font-size="13" fill="#e6edf3">Final-year ECE · MSIT, GGSIPU</text>
<rect x="306" y="244" width="136" height="30" rx="15" fill="#34d399" fill-opacity=".12" stroke="#34d399" stroke-opacity=".5"/>
<circle class="pulse" cx="324" cy="259" r="4.5" fill="#34d399"/>
<text x="337" y="264" font-size="13" fill="#34d399">Open to roles</text>
<rect x="612" y="36" width="352" height="228" rx="16" fill="#ffffff" fill-opacity=".04" stroke="#2a3658"/>
<circle cx="632" cy="56" r="4.5" fill="#fb7185"/><circle cx="648" cy="56" r="4.5" fill="#fbbf24"/><circle cx="664" cy="56" r="4.5" fill="#34d399"/>
<text class="m" x="684" y="60" font-size="11.5" fill="#8b98b5">analysis.ipynb</text>
<line x1="636" y1="244" x2="940" y2="244" stroke="#2a3658"/>
<rect class="grow" style="animation-delay:0.00s" x="646" y="184" width="24" height="60" rx="4" fill="url(#bar)"/><rect class="grow" style="animation-delay:0.15s" x="682" y="158" width="24" height="86" rx="4" fill="url(#bar)"/><rect class="grow" style="animation-delay:0.30s" x="718" y="172" width="24" height="72" rx="4" fill="url(#bar)"/><rect class="grow" style="animation-delay:0.45s" x="754" y="132" width="24" height="112" rx="4" fill="url(#bar)"/><rect class="grow" style="animation-delay:0.60s" x="790" y="148" width="24" height="96" rx="4" fill="url(#bar)"/><rect class="grow" style="animation-delay:0.75s" x="826" y="108" width="24" height="136" rx="4" fill="url(#bar)"/><rect class="grow" style="animation-delay:0.90s" x="862" y="122" width="24" height="122" rx="4" fill="url(#bar)"/><rect class="grow" style="animation-delay:1.05s" x="898" y="80" width="24" height="164" rx="4" fill="#fbbf24"/>
<path class="draw" d="M658,170 L694,144 L730,158 L766,118 L802,134 L838,94 L874,108 L910,66" pathLength="1" fill="none" stroke="#fbbf24" stroke-width="2.5" stroke-linejoin="round" stroke-linecap="round" opacity=".95"/>
<circle class="pulse" cx="910" cy="66" r="9" fill="#fbbf24" opacity=".35"/><circle cx="910" cy="66" r="4.5" fill="#fbbf24"/>
</svg>
