<svg xmlns="http://www.w3.org/2000/svg" width="440" height="212" viewBox="0 0 440 212">
<defs>
<linearGradient id="bg" x1="0" y1="0" x2="1" y2="1"><stop offset="0" stop-color="#0b1220"/><stop offset="1" stop-color="#141d38"/></linearGradient>
<linearGradient id="bar" x1="0" y1="1" x2="0" y2="0"><stop offset="0" stop-color="#a78bfa"/><stop offset="1" stop-color="#22d3ee"/></linearGradient>
<pattern id="dots" width="22" height="22" patternUnits="userSpaceOnUse"><circle cx="2" cy="2" r="1" fill="#ffffff" opacity=".07"/></pattern>
</defs>
<style>
  text { font-family:-apple-system,'Segoe UI',Helvetica,Arial,sans-serif; }
  .m { font-family:'SF Mono','JetBrains Mono',Menlo,Consolas,monospace; }
  @media (prefers-reduced-motion: reduce) { * { animation:none !important; } }
  .blink { animation:blink 1.6s ease-in-out infinite; }
  @keyframes blink { 50% { opacity:.25; } }
</style>
<rect width="440" height="212" rx="12" fill="url(#bg)"/><rect width="440" height="212" rx="12" fill="url(#dots)"/><rect x=".5" y=".5" width="439" height="211" rx="12" fill="none" stroke="#2a3658"/><text class="m" x="22" y="30" font-size="11.5" fill="#22d3ee" letter-spacing="1">TRANSFER LEARNING</text><circle cx="30" cy="58" r="4.5" fill="#22d3ee" opacity="0.45"/><circle cx="51" cy="58" r="4.5" fill="#22d3ee" opacity="0.45"/><circle cx="72" cy="58" r="4.5" fill="#22d3ee" opacity="0.45"/><circle cx="93" cy="58" r="4.5" fill="#22d3ee" opacity="0.45"/><circle cx="114" cy="58" r="4.5" fill="#22d3ee" opacity="0.45"/><circle cx="135" cy="58" r="4.5" fill="#22d3ee" opacity="0.45"/><circle cx="156" cy="58" r="4.5" fill="#22d3ee" opacity="0.45"/><circle cx="177" cy="58" r="4.5" fill="#22d3ee" opacity="0.45"/><circle cx="198" cy="58" r="4.5" fill="#22d3ee" opacity="0.45"/><circle cx="219" cy="58" r="4.5" fill="#22d3ee" opacity="0.45"/><circle cx="240" cy="58" r="4.5" fill="#22d3ee" opacity="0.45"/><circle class="blink" cx="261" cy="58" r="4.5" fill="#fbbf24" opacity="1"/><circle cx="282" cy="58" r="4.5" fill="#22d3ee" opacity="0.45"/><circle cx="303" cy="58" r="4.5" fill="#22d3ee" opacity="0.45"/><circle cx="324" cy="58" r="4.5" fill="#22d3ee" opacity="0.45"/><circle cx="345" cy="58" r="4.5" fill="#22d3ee" opacity="0.45"/><circle cx="366" cy="58" r="4.5" fill="#22d3ee" opacity="0.45"/><circle cx="387" cy="58" r="4.5" fill="#22d3ee" opacity="0.45"/><circle cx="408" cy="58" r="4.5" fill="#22d3ee" opacity="0.45"/><circle cx="30" cy="76" r="4.5" fill="#22d3ee" opacity="0.45"/><circle cx="51" cy="76" r="4.5" fill="#22d3ee" opacity="0.45"/><circle cx="72" cy="76" r="4.5" fill="#22d3ee" opacity="0.45"/><circle cx="93" cy="76" r="4.5" fill="#22d3ee" opacity="0.45"/><circle cx="114" cy="76" r="4.5" fill="#22d3ee" opacity="0.45"/><circle cx="135" cy="76" r="4.5" fill="#22d3ee" opacity="0.45"/><circle cx="156" cy="76" r="4.5" fill="#22d3ee" opacity="0.45"/><circle cx="177" cy="76" r="4.5" fill="#22d3ee" opacity="0.45"/><circle cx="198" cy="76" r="4.5" fill="#22d3ee" opacity="0.45"/><circle cx="219" cy="76" r="4.5" fill="#22d3ee" opacity="0.45"/><circle cx="240" cy="76" r="4.5" fill="#22d3ee" opacity="0.45"/><circle cx="261" cy="76" r="4.5" fill="#22d3ee" opacity="0.45"/><circle cx="282" cy="76" r="4.5" fill="#22d3ee" opacity="0.45"/><circle cx="303" cy="76" r="4.5" fill="#22d3ee" opacity="0.45"/><circle cx="324" cy="76" r="4.5" fill="#22d3ee" opacity="0.45"/><circle cx="345" cy="76" r="4.5" fill="#22d3ee" opacity="0.45"/><circle cx="366" cy="76" r="4.5" fill="#22d3ee" opacity="0.45"/><circle cx="387" cy="76" r="4.5" fill="#22d3ee" opacity="0.45"/><circle cx="408" cy="76" r="4.5" fill="#22d3ee" opacity="0.45"/><text class="m" x="22" y="108" font-size="11" fill="#8b98b5">38 disease classes · MobileNetV2 · 87,000+ leaf images</text><line x1="22" y1="128" x2="418" y2="128" stroke="#2a3658"/><text x="22" y="154" font-size="16" font-weight="600" fill="#e6edf3">PlantCare AI</text><text x="22" y="176" font-size="12" fill="#8b98b5">MobileNetV2 transfer-learning classifier across 87,000+ leaf</text><text x="22" y="195" font-size="12" fill="#8b98b5">images and 38 plant-disease classes.</text>
</svg>
